<svg width="34" height="34" viewBox="0 0 34 34" fill="none" xmlns="http://www.w3.org/2000/svg">
<path fill-rule="evenodd" clip-rule="evenodd" d="M8.29508 0.409851C3.71384 0.409851 0 4.12369 0 8.70494V25.2951C0 29.8763 3.71384 33.5902 8.29509 33.5902H24.8852C29.4665 33.5902 33.1803 29.8763 33.1803 25.2951V8.70493C33.1803 4.12369 29.4665 0.409851 24.8852 0.409851H8.29508ZM22.0818 9.95497C22.9082 9.95497 23.5781 10.6265 23.5781 11.4549C23.5781 12.2833 22.9082 12.9548 22.0818 12.9548H16.0965C15.2702 12.9548 14.6002 12.2833 14.6002 11.4549C14.6002 10.6265 15.2702 9.95497 16.0965 9.95497H22.0818ZM11.6077 11.455C11.6077 10.6266 10.9378 9.95505 10.1114 9.95505C9.285 9.95505 8.61508 10.6266 8.61508 11.455V18.9546C8.61508 22.2682 11.2948 24.9544 14.6003 24.9544H22.0819C22.9083 24.9544 23.5782 24.2828 23.5782 23.4544C23.5782 22.626 22.9083 21.9545 22.0819 21.9545H14.6003C12.9476 21.9545 11.6077 20.6114 11.6077 18.9546V11.455ZM22.0818 17.4546C22.0818 16.6262 21.4119 15.9547 20.5855 15.9547H16.0965C15.2702 15.9547 14.6002 16.6262 14.6002 17.4546C14.6002 18.283 15.2702 18.9545 16.0965 18.9545H20.5855C21.4119 18.9545 22.0818 18.283 22.0818 17.4546Z" fill="#316BFF"/>
</svg>
